<svg width="145" height="30" viewBox="0 0 145 30" fill="none" xmlns="http://www.w3.org/2000/svg">
<mask id="mask0_158_2897" style="mask-type:luminance" maskUnits="userSpaceOnUse" x="37" y="8" width="108" height="14">
<path d="M144.095 8.21454H37.3379V21.9309H144.095V8.21454Z" fill="white"/>
</mask>
<g mask="url(#mask0_158_2897)">
<path d="M45.2469 16.0875H40.3379V19.2421H45.8259V21.6839H37.3379V8.4613H45.5219V10.9032H40.3379V13.6735H45.2469V16.0875Z" fill="#1E4383"/>
<path d="M51.4468 21.683L47.1758 8.46141H50.4828L52.0828 14.0578C52.5508 15.6217 52.9648 17.1298 53.2958 18.7763H53.3238C53.6548 17.1836 54.0958 15.6217 54.5368 14.0857L56.2148 8.43353H59.4148L54.9758 21.683H51.4468Z" fill="#1E4383"/>
<path d="M69.0555 16.0875H64.1775V19.2421H69.6615V21.6839H61.1465V8.4613H69.3305V10.9032H64.1775V13.6735H69.0825L69.0555 16.0875Z" fill="#1E4383"/>
<path d="M72.0049 8.62666C73.3288 8.43002 74.6664 8.33815 76.0049 8.35191C77.515 8.21037 79.0292 8.57737 80.3049 9.39415C80.7151 9.72701 81.041 10.1511 81.2563 10.6323C81.4717 11.1135 81.5706 11.6383 81.5449 12.1645C81.5306 12.8802 81.2994 13.5749 80.8814 14.1574C80.4635 14.7399 79.8784 15.183 79.2029 15.4286V15.4833C79.6697 15.733 80.0734 16.085 80.3837 16.5126C80.6939 16.9403 80.9026 17.4325 80.9939 17.9521C81.2776 19.2158 81.6366 20.4617 82.0689 21.683H78.9549C78.5631 20.6776 78.2589 19.6405 78.0459 18.5832C77.6879 16.9377 77.1089 16.4987 75.8689 16.4708H74.9869V21.683H72.0049V8.62666ZM74.9809 14.3326H76.1659C77.6539 14.3326 78.5659 13.5641 78.5659 12.4124C78.5659 11.2049 77.7389 10.5748 76.3659 10.5748C75.9132 10.5602 75.4603 10.5969 75.0159 10.6843V14.3316L74.9809 14.3326Z" fill="#1E4383"/>
<path d="M86.6926 21.683V16.2518L82.4766 8.46141H85.9216L87.2716 11.6469C87.6846 12.6075 87.9606 13.3202 88.2916 14.1703H88.3196C88.6196 13.3471 88.9256 12.5776 89.3116 11.619L90.6616 8.43353H94.0516L89.6966 16.1692V21.7109H86.6966L86.6926 21.683Z" fill="#1E4383"/>
<path d="M106.563 21.2172C105.279 21.7376 103.898 21.9805 102.512 21.9299C98.3779 21.9299 95.2639 19.4881 95.2639 15.1817C95.2639 11.3691 98.1579 8.21354 102.952 8.21354C104.207 8.16984 105.456 8.39421 106.617 8.87154L106.176 10.298C105.195 9.86947 104.134 9.65495 103.063 9.6689C99.3699 9.6689 97.1629 11.8589 97.1629 15.1548C97.1629 18.1173 99.1749 20.4497 102.922 20.4497C104.056 20.4632 105.181 20.2485 106.229 19.8185L106.563 21.2172Z" fill="#1E4383"/>
<path d="M109.18 8.62279C110.391 8.42535 111.617 8.32548 112.845 8.32416C114.829 8.32416 116.124 8.68053 116.979 9.44902C117.33 9.76191 117.608 10.1475 117.794 10.5788C117.98 11.0101 118.068 11.4766 118.054 11.9456C118.047 12.7155 117.788 13.4622 117.315 14.0716C116.843 14.681 116.182 15.1195 115.436 15.3202V15.375C115.955 15.6118 116.409 15.9698 116.759 16.4187C117.109 16.8676 117.346 17.394 117.448 17.9532C117.704 19.2266 118.072 20.475 118.548 21.6841H116.702C116.297 20.6712 115.984 19.6245 115.765 18.5564C115.324 16.7457 114.58 16.033 112.927 15.9503H110.97V21.6832H109.18V8.62279ZM110.971 14.6304H113.093C115.077 14.6304 116.293 13.6429 116.293 12.1616C116.293 10.3788 114.832 9.69291 112.959 9.69291C112.284 9.67393 111.609 9.72901 110.947 9.85716L110.971 14.6304Z" fill="#1E4383"/>
<path d="M128.525 15.5111H122.766V20.2296H129.187V21.6839H120.974V8.4613H128.883V9.91566H122.793V14.0577H128.552V15.5111H128.524" fill="#1E4383"/>
<path d="M131.86 8.62279C133.248 8.42933 134.648 8.32956 136.049 8.32416C138.86 8.32416 140.899 8.98215 142.194 10.2155C142.823 10.7865 143.319 11.4875 143.647 12.2694C143.975 13.0513 144.128 13.8951 144.094 14.7419C144.113 15.6659 143.945 16.5844 143.599 17.4422C143.254 18.3 142.738 19.0795 142.082 19.7341C140.704 21.051 138.389 21.7917 135.441 21.7917C134.236 21.8016 133.031 21.7467 131.831 21.6274V8.62279H131.86ZM133.651 20.3084C134.356 20.3841 135.065 20.4117 135.773 20.3911C140.127 20.3911 142.221 18.0866 142.221 14.7946C142.249 11.7226 140.209 9.71779 136.103 9.71779C135.28 9.70952 134.458 9.78288 133.65 9.93679L133.651 20.3084Z" fill="#1E4383"/>
</g>
<path d="M17.4202 6.7879L22.9322 9.10333V11.157L17.4202 8.84153L9.87518 12.0001V17.9987L17.4202 21.1573L22.9322 18.8418V20.8955L17.4202 23.2129L15.8972 22.5808L7.40918 18.8976V11.1102L15.8972 7.42698L17.4202 6.7879Z" fill="#1E4383"/>
<mask id="mask1_158_2897" style="mask-type:luminance" maskUnits="userSpaceOnUse" x="0" y="0" width="31" height="30">
<path d="M30.134 0H0V30H30.134V0Z" fill="white"/>
</mask>
<g mask="url(#mask1_158_2897)">
<path d="M27.444 1.85641e-07H2.68701C1.97478 0.00131582 1.29209 0.283545 0.788471 0.78488C0.284847 1.28621 0.00132835 1.96579 6.71131e-06 2.67479V27.3163C-0.00158661 28.0273 0.280581 28.7099 0.784463 29.2139C1.28834 29.718 1.97269 30.0021 2.68701 30.004H27.441C27.7947 30.0041 28.1449 29.9349 28.4717 29.8002C28.7985 29.6655 29.0954 29.4681 29.3455 29.2191C29.5956 28.9701 29.794 28.6746 29.9293 28.3493C30.0646 28.024 30.1341 27.6753 30.134 27.3232V2.67479C30.1335 1.96503 29.8498 1.28454 29.3454 0.782954C28.8409 0.281363 28.157 -0.000263957 27.444 1.85641e-07ZM23.326 13.5003L17.058 9.89979L12.417 12.5427V17.4603L17.058 20.1002L23.327 16.4997V22.9801L17.058 26.5786L15.009 25.3841L6.80901 20.7054V9.29854L15.009 4.6199L17.057 3.41839L23.326 7.01895V13.5003Z" fill="#1E4383"/>
<path d="M17.0576 9.89972L23.3266 13.5003V7.01987L17.0576 3.41931L15.0096 4.62083L6.80957 9.29946V20.6984L15.0096 25.377L17.0576 26.5786L23.3266 22.978V16.4976L17.0576 20.0982L12.4166 17.4582V12.5367L17.0576 9.89972ZM17.0576 22.0194L21.6366 19.3794V21.7197L17.0576 24.3597L15.7916 23.639L8.73958 19.4382V10.5617L15.7916 6.36088L17.0576 5.64017L21.6366 8.28012V10.6204L17.0576 7.98048L10.7886 11.581V18.4218L17.0576 22.0194Z" fill="white"/>
<path d="M10.7892 11.5801V18.4179L17.0582 22.0185L21.6412 19.3765V21.7168L17.0622 24.3568L15.7962 23.6361L8.74121 19.4382V10.5618L15.7932 6.36097L17.0592 5.64026L21.6382 8.2802V10.6165L17.0592 7.97659L10.7892 11.5801Z" fill="#1E4383"/>
<path d="M10.7892 11.5801V18.4179L17.0582 22.0185L21.6412 19.3765V21.7168L17.0622 24.3568L15.7962 23.6361L8.74121 19.4382V10.5618L15.7932 6.36097L17.0592 5.64026L21.6382 8.2802V10.6165L17.0592 7.97659L10.7892 11.5801Z" fill="#1E4383"/>
<path d="M10.7892 11.5801V18.4179L17.0582 22.0185L21.6412 19.3765V21.7168L17.0622 24.3568L15.7962 23.6361L8.74121 19.4382V10.5618L15.7932 6.36097L17.0592 5.64026L21.6382 8.2802V10.6165L17.0592 7.97659L10.7892 11.5801Z" fill="#1E4383"/>
<path d="M14.2832 16.6788V13.5003L17.0552 15.1209L19.8272 13.5003L17.0552 11.9384L14.2832 13.5003V16.6788Z" fill="#A5C3E7"/>
<path d="M17.0547 15.1199V18.2397L19.8267 16.6778V13.4993L17.0547 15.1199Z" fill="#7D9ED2"/>
<path d="M14.2832 13.5002V16.6788L15.1282 17.1596L17.0562 18.2406V15.1209L14.2832 13.5002Z" fill="white"/>
<path d="M10.7892 11.5801V18.4179L17.0582 22.0185L21.6412 19.3765V21.7168L17.0622 24.3568L15.7962 23.6361L8.74121 19.4382V10.5618L15.7932 6.36097L17.0592 5.64026L21.6382 8.2802V10.6165L17.0592 7.97659L10.7892 11.5801Z" fill="#1E4383"/>
</g>
</svg>
