<svg width="231" height="60" viewBox="0 0 231 60" fill="none" xmlns="http://www.w3.org/2000/svg">
  <path fill-rule="evenodd" clip-rule="evenodd"
    d="M44.1251 20.8072C44.1467 20.8719 44.1467 20.9257 44.1467 20.9903V30.7481C44.1467 31.0065 44.0067 31.2435 43.7913 31.3619L35.606 36.0792V45.4277C35.606 45.6862 35.466 45.9124 35.2506 46.0416L18.1584 55.8855C18.1584 55.8855 18.0722 55.9178 18.0292 55.9393C18.0184 55.9393 17.9968 55.9501 17.9861 55.9609C17.8676 55.9932 17.7384 55.9932 17.6199 55.9609C17.5983 55.9609 17.5876 55.9501 17.566 55.9393C17.523 55.9286 17.4907 55.9178 17.4476 55.8962L0.355407 46.0524C0.129235 45.9231 0 45.6862 0 45.4385V16.1653C0 16.1007 -3.61497e-06 16.0361 0.0215366 15.9822C0.0215366 15.9607 0.0430732 15.9392 0.0430732 15.9176C0.0538433 15.8853 0.0646144 15.8422 0.0861546 15.8099C0.0969247 15.7884 0.118468 15.7668 0.140008 15.7453C0.161549 15.713 0.183086 15.6914 0.204626 15.6591C0.226167 15.6376 0.247707 15.6268 0.280017 15.6053C0.301557 15.5837 0.333867 15.5622 0.355407 15.5407L8.90688 10.6187C9.12228 10.4895 9.4023 10.4895 9.6177 10.6187L18.1692 15.5407C18.1692 15.5407 18.223 15.5837 18.2446 15.6053C18.2661 15.6268 18.2984 15.6376 18.3092 15.6591C18.3307 15.6807 18.3523 15.713 18.3738 15.7453C18.3846 15.7668 18.4061 15.7884 18.4169 15.8099C18.4384 15.8422 18.4492 15.8853 18.46 15.9176C18.46 15.9392 18.4815 15.9607 18.4815 15.9822C18.503 16.0468 18.503 16.1007 18.503 16.1653V34.453L25.6221 30.3496V21.0011C25.6221 20.9365 25.6221 20.8719 25.6436 20.818C25.6436 20.7965 25.6652 20.7749 25.6652 20.7534C25.6759 20.7211 25.6867 20.678 25.7082 20.6457C25.719 20.6241 25.7406 20.6026 25.7513 20.5811C25.7729 20.5488 25.7944 20.5272 25.8159 20.4949C25.8375 20.4734 25.859 20.4626 25.8806 20.4411C25.9021 20.4195 25.9344 20.398 25.956 20.3764L34.5074 15.4545C34.7228 15.3253 35.0028 15.3253 35.2182 15.4545L43.7697 20.3764C43.7697 20.3764 43.8236 20.4195 43.8451 20.4411C43.8666 20.4626 43.8882 20.4734 43.9097 20.4949C43.9313 20.5164 43.9528 20.5488 43.9743 20.5811C43.9851 20.6026 44.0067 20.6241 44.0174 20.6457C44.039 20.678 44.0497 20.7211 44.0605 20.7534C44.0605 20.7749 44.082 20.7965 44.082 20.818L44.1251 20.8072ZM42.725 30.3388V22.2289L39.7309 23.9521L35.5952 26.3323V34.4422L42.7142 30.3388H42.725ZM34.1735 45.0184V36.8978L30.1132 39.2241L18.503 45.8477V54.0438L34.1735 45.0184ZM1.41088 17.3931V45.0184L17.0814 54.0438V45.8477L8.8961 41.2166C8.86379 41.2058 8.84225 41.1735 8.82071 41.1627C8.79917 41.1412 8.77763 41.1304 8.75609 41.1089C8.75609 41.1089 8.71301 41.055 8.70224 41.0335C8.6807 41.012 8.65917 40.9904 8.64839 40.9689C8.64839 40.9689 8.62686 40.9043 8.61609 40.8719C8.60532 40.8504 8.59454 40.8181 8.58377 40.7966C8.58377 40.7966 8.58377 40.7212 8.573 40.6889C8.573 40.6673 8.573 40.635 8.573 40.6135V21.5073L4.43728 19.1271L1.44319 17.4039L1.41088 17.3931ZM9.25152 12.0619L2.13248 16.1653L9.25152 20.2687L16.3706 16.1653L9.25152 12.0727V12.0619ZM12.9457 37.6409L17.0814 35.2607V17.3931L14.0873 19.1163L9.95158 21.4965V39.3641L12.9457 37.6409ZM34.8844 16.8977L27.7653 21.0011L34.8844 25.1045L42.0034 21.0011L34.8844 16.9085V16.8977ZM34.1735 26.3215L30.0378 23.9413L27.0437 22.2181V30.328L31.1795 32.7082L34.1735 34.4314V26.3215ZM17.7922 44.6092L28.2392 38.6425L33.4627 35.6592L26.3437 31.5666L18.1476 36.2839L10.6839 40.5812L17.7922 44.6092Z"
    fill="#FF2D1F" />
  <path
    d="M78.278 8.33591C77.201 7.2589 76.0055 6.44037 74.67 5.85878C73.3345 5.2772 71.9667 4.98641 70.5558 4.98641C68.768 4.98641 67.0771 5.47106 65.4831 6.4296C63.8999 7.38814 62.6398 8.68055 61.7243 10.2961C60.8089 11.9116 60.3458 13.6348 60.3458 15.4657C60.3458 17.2966 60.8089 18.966 61.7351 20.6031C62.6613 22.2401 63.9214 23.5325 65.5154 24.4911C67.1094 25.4496 68.8111 25.9343 70.6204 25.9343C71.9882 25.9343 73.3345 25.6435 74.6592 25.0619C75.9947 24.4803 77.1902 23.651 78.2672 22.574V26.0635C77.1902 26.8497 76.0055 27.4528 74.6915 27.8944C73.3776 28.336 72.0529 28.5514 70.7174 28.5514C68.4772 28.5514 66.3339 27.9913 64.2876 26.8713C62.2413 25.7512 60.6042 24.1895 59.3657 22.1647C58.1379 20.1507 57.524 17.9428 57.524 15.5519C57.524 13.1609 58.1163 10.9854 59.3011 8.96058C60.4858 6.9358 62.1013 5.33105 64.1584 4.14634C66.2047 2.96163 68.391 2.36926 70.7174 2.36926C72.1498 2.36926 73.5499 2.60621 74.9069 3.08009C76.2747 3.55398 77.3948 4.14633 78.2672 4.85715V8.34667L78.278 8.33591Z"
    fill="black" />
  <path
    d="M96.7698 20.7967H84.3842C84.4273 22.3692 84.9442 23.6293 85.9243 24.6094C86.9044 25.5787 88.1214 26.0741 89.5538 26.0741C90.5662 26.0741 91.4494 25.8156 92.2248 25.2987C93.0003 24.7817 93.7111 23.9524 94.3573 22.8108L96.6406 24.1247C95.8759 25.5356 94.8743 26.6234 93.6357 27.3988C92.3972 28.1743 90.9647 28.562 89.36 28.562C87.7552 28.562 86.452 28.1958 85.2673 27.4527C84.0826 26.7203 83.1779 25.7294 82.564 24.4801C81.9502 23.2416 81.6378 21.8845 81.6378 20.4413C81.6378 18.8258 81.9394 17.3719 82.564 16.0794C83.1779 14.787 84.0719 13.7639 85.235 13.0315C86.3982 12.2991 87.7552 11.9222 89.2954 11.9222C90.8355 11.9222 92.1171 12.2884 93.2695 13.01C94.4219 13.7316 95.3051 14.7439 95.9082 16.0148C96.5113 17.2857 96.8129 18.7181 96.8129 20.3121C96.8129 20.4629 96.8021 20.6352 96.7806 20.8075L96.7698 20.7967ZM93.948 18.5135C93.7219 17.2857 93.1726 16.2948 92.3002 15.5302C91.4278 14.7655 90.4262 14.3885 89.3169 14.3885C88.2076 14.3885 87.1952 14.787 86.2259 15.584C85.2673 16.381 84.6965 17.3611 84.5134 18.5242H93.948V18.5135Z"
    fill="black" />
  <path
    d="M107.712 15.0892C107.443 14.8846 107.195 14.723 106.958 14.583C106.721 14.4538 106.441 14.3784 106.096 14.3784C105.084 14.3784 104.319 14.8307 103.802 15.7246C103.275 16.6186 103.016 18.0617 103.016 20.0542V28.1103H100.334V12.332H103.016V14.0445H103.081C103.727 13.1721 104.308 12.6013 104.804 12.3213C105.31 12.0413 105.892 11.9012 106.57 11.9012C106.979 11.9012 107.378 11.9659 107.798 12.1059C108.207 12.2351 108.606 12.4182 108.993 12.6444L107.712 15.0892Z"
    fill="black" />
  <path
    d="M114.531 6.65668V12.3325H117.353V14.8204H114.531V28.1107H111.849V14.8204H110.201V12.3325H111.849V6.65668H114.531Z"
    fill="black" />
  <path
    d="M122.95 12.3316V28.1098H120.269V12.3316H122.95ZM119.698 6.32188C119.698 5.82646 119.892 5.40643 120.279 5.02947C120.667 4.66329 121.109 4.46942 121.604 4.46942C122.099 4.46942 122.563 4.65252 122.95 5.02947C123.327 5.39566 123.521 5.82646 123.521 6.32188C123.521 6.90347 123.327 7.37735 122.95 7.75431C122.573 8.12049 122.121 8.30359 121.604 8.30359C121.087 8.30359 120.646 8.1205 120.258 7.76509C119.881 7.40967 119.687 6.92501 119.687 6.32188H119.698Z"
    fill="black" />
  <path
    d="M135.469 3.03718C135.113 2.92948 134.801 2.83255 134.543 2.76793C134.284 2.7033 133.983 2.67098 133.649 2.67098C132.841 2.67098 132.281 2.90793 131.958 3.38181C131.635 3.8557 131.473 4.71731 131.473 5.99896V12.3426H135.469V14.8304H131.473V28.1208H128.791V14.8304H127.316V12.3426H128.791V5.3312C128.791 4.12495 128.953 3.14488 129.276 2.41251C129.599 1.66937 130.127 1.08778 130.87 0.667741C131.613 0.247707 132.507 0.0215402 133.552 0C133.886 0 134.23 0.0323169 134.575 0.107708C134.92 0.172328 135.221 0.24772 135.458 0.344651V3.05871L135.469 3.03718Z"
    fill="black" />
  <path
    d="M140.935 12.3316V28.1098H138.253V12.3316H140.935ZM137.683 6.32188C137.683 5.82646 137.876 5.40643 138.264 5.02947C138.652 4.66329 139.094 4.46942 139.589 4.46942C140.084 4.46942 140.547 4.65252 140.935 5.02947C141.312 5.39566 141.506 5.82646 141.506 6.32188C141.506 6.90347 141.312 7.37735 140.935 7.75431C140.558 8.12049 140.106 8.30359 139.589 8.30359C139.072 8.30359 138.63 8.1205 138.243 7.76509C137.866 7.40967 137.672 6.92501 137.672 6.32188H137.683Z"
    fill="black" />
  <path
    d="M158.255 17.0392H158.191C157.609 16.253 156.898 15.6175 156.058 15.1221C155.218 14.6267 154.292 14.379 153.29 14.379C151.729 14.379 150.404 14.9498 149.327 16.0914C148.25 17.2331 147.711 18.6116 147.711 20.2164C147.711 21.8211 148.228 23.1997 149.252 24.3413C150.285 25.483 151.578 26.0538 153.14 26.0538C154.281 26.0538 155.261 25.8168 156.08 25.3322C156.898 24.8475 157.631 24.1798 158.277 23.3397H158.341V26.9262C157.598 27.4431 156.812 27.8416 155.994 28.1109C155.164 28.3909 154.281 28.5309 153.344 28.5309C151.847 28.5309 150.447 28.1755 149.133 27.4539C147.819 26.7323 146.796 25.7307 146.064 24.449C145.32 23.1674 144.954 21.7457 144.954 20.2056C144.954 18.7516 145.32 17.3838 146.042 16.0914C146.774 14.8098 147.798 13.7866 149.111 13.0219C150.436 12.2573 151.858 11.8803 153.376 11.8803C154.184 11.8803 154.97 11.988 155.746 12.2142C156.521 12.4404 157.351 12.8496 158.245 13.4528V17.0069L158.255 17.0392Z"
    fill="black" />
  <path
    d="M174.24 14.583V12.332H176.922V28.1103H174.24V25.9239H174.175C172.786 27.6687 170.976 28.5411 168.736 28.5411C166.496 28.5411 164.741 27.7333 163.319 26.1285C161.897 24.513 161.186 22.5636 161.186 20.2588C161.186 17.954 161.897 15.8431 163.33 14.2707C164.762 12.6875 166.571 11.9012 168.769 11.9012C169.867 11.9012 170.879 12.1382 171.806 12.6121C172.732 13.086 173.529 13.7429 174.175 14.5938H174.24V14.583ZM169.07 14.3784C167.638 14.3784 166.421 14.9276 165.43 16.0262C164.428 17.1247 163.933 18.471 163.933 20.0542C163.933 21.7559 164.417 23.1775 165.398 24.3299C166.367 25.4823 167.605 26.0532 169.113 26.0532C170.696 26.0532 171.978 25.5039 172.937 24.4053C173.895 23.3068 174.38 21.8636 174.38 20.0758C174.38 18.4387 173.884 17.0817 172.904 15.9939C171.924 14.9061 170.643 14.3676 169.081 14.3676L169.07 14.3784Z"
    fill="black" />
  <path
    d="M184.705 6.65668V12.3325H187.526V14.8204H184.705V28.1107H182.023V14.8204H180.375V12.3325H182.023V6.65668H184.705Z"
    fill="black" />
  <path
    d="M193.127 12.3316V28.1098H190.445V12.3316H193.127ZM189.875 6.32188C189.875 5.82646 190.068 5.40643 190.456 5.02947C190.844 4.66329 191.285 4.46942 191.781 4.46942C192.276 4.46942 192.739 4.65252 193.127 5.02947C193.504 5.39566 193.698 5.82646 193.698 6.32188C193.698 6.90347 193.504 7.37735 193.127 7.75431C192.75 8.12049 192.298 8.30359 191.781 8.30359C191.264 8.30359 190.822 8.1205 190.435 7.76509C190.058 7.40967 189.864 6.92501 189.864 6.32188H189.875Z"
    fill="black" />
  <path
    d="M197.334 20.2588C197.334 18.7618 197.7 17.3617 198.443 16.0585C199.186 14.7661 200.188 13.7429 201.469 13.0106C202.74 12.2782 204.13 11.9012 205.637 11.9012C207.145 11.9012 208.513 12.2674 209.784 13.0106C211.044 13.7537 212.056 14.7661 212.81 16.0477C213.564 17.3294 213.93 18.7403 213.93 20.2588C213.93 21.7774 213.564 23.156 212.821 24.4376C212.078 25.7193 211.076 26.7317 209.795 27.4533C208.524 28.1749 207.134 28.5411 205.637 28.5411C204.14 28.5411 202.74 28.1749 201.459 27.4317C200.177 26.6994 199.165 25.687 198.432 24.3946C197.711 23.1021 197.344 21.7236 197.344 20.2481L197.334 20.2588ZM205.594 14.3784C204 14.3784 202.676 14.9384 201.62 16.0693C200.565 17.2001 200.026 18.5787 200.026 20.2158C200.026 21.422 200.317 22.499 200.899 23.4253C201.48 24.3515 202.191 25.0192 203.031 25.4393C203.871 25.8485 204.744 26.0639 205.637 26.0639C206.661 26.0639 207.608 25.827 208.459 25.3423C209.31 24.8577 209.989 24.1684 210.495 23.2637C211.001 22.359 211.249 21.3466 211.249 20.2265C211.249 19.1926 211.023 18.2341 210.559 17.3402C210.096 16.4462 209.429 15.7246 208.567 15.1969C207.695 14.6584 206.714 14.3891 205.616 14.3891L205.594 14.3784Z"
    fill="black" />
  <path
    d="M230.223 28.1103H227.541V18.9126C227.541 17.3186 227.305 16.1662 226.82 15.4554C226.335 14.7338 225.474 14.3784 224.224 14.3784C222.792 14.3784 221.779 14.8738 221.187 15.8539C220.595 16.834 220.304 18.3418 220.304 20.3558V28.1103H217.622V12.332H220.304V14.2491H220.369C220.929 13.4844 221.575 12.9029 222.296 12.5044C223.018 12.1059 223.88 11.9012 224.86 11.9012C226.626 11.9012 227.962 12.4397 228.877 13.5275C229.782 14.6153 230.234 16.2954 230.234 18.5787V28.1103H230.223Z"
    fill="black" />
  <path
    d="M65.8946 34.3777C65.5392 34.27 65.2269 34.173 64.9684 34.1084C64.7099 34.0438 64.4083 34.0115 64.0745 34.0115C63.2667 34.0115 62.7067 34.2484 62.3836 34.7223C62.0605 35.1962 61.8989 36.0578 61.8989 37.3395V43.683H65.8946V46.1709H61.8989V59.4613H59.2171V46.1709H57.7416V43.683H59.2171V36.6717C59.2171 35.4655 59.3787 34.4854 59.7018 33.753C60.0249 33.0099 60.5526 32.4283 61.2958 32.0083C62.0389 31.5882 62.9328 31.3621 63.9775 31.3405C64.3114 31.3405 64.656 31.3728 65.0007 31.4482C65.3453 31.5128 65.6469 31.5882 65.8838 31.6852V34.3992L65.8946 34.3777Z"
    fill="black" />
  <path
    d="M66.7617 51.5989C66.7617 50.1019 67.1279 48.7018 67.871 47.3986C68.6142 46.1062 69.6158 45.083 70.8975 44.3507C72.1683 43.6183 73.5577 43.2413 75.0655 43.2413C76.5733 43.2413 77.9411 43.6075 79.212 44.3507C80.4721 45.0938 81.4845 46.1062 82.2384 47.3878C82.9923 48.6695 83.3585 50.0804 83.3585 51.5989C83.3585 53.1175 82.9923 54.4961 82.2491 55.7778C81.506 57.0594 80.5044 58.0718 79.2227 58.7934C77.9519 59.515 76.5625 59.8812 75.0655 59.8812C73.5684 59.8812 72.1683 59.515 70.8867 58.7718C69.605 58.0395 68.5926 57.0271 67.8603 55.7347C67.1387 54.4423 66.7725 53.0637 66.7725 51.5882L66.7617 51.5989ZM75.0224 45.7292C73.4284 45.7292 72.1037 46.2893 71.0482 47.4201C69.9928 48.551 69.4542 49.9296 69.4542 51.5666C69.4542 52.7729 69.7451 53.8499 70.3266 54.7761C70.9082 55.7024 71.619 56.3701 72.4591 56.7901C73.2992 57.1994 74.1716 57.4148 75.0655 57.4148C76.0886 57.4148 77.0364 57.1779 77.8872 56.6932C78.7381 56.2085 79.4166 55.5193 79.9228 54.6146C80.429 53.7099 80.6767 52.6975 80.6767 51.5774C80.6767 50.5435 80.4505 49.5849 79.9874 48.691C79.5243 47.7971 78.8566 47.0755 77.9949 46.5478C77.1226 46.0093 76.1425 45.74 75.0439 45.74L75.0224 45.7292Z"
    fill="black" />
  <path
    d="M94.2788 46.4293C94.0095 46.2247 93.7618 46.0631 93.5249 45.9231C93.2879 45.7939 93.0079 45.7185 92.6632 45.7185C91.6509 45.7185 90.8862 46.1708 90.3692 47.0647C89.8415 47.9586 89.583 49.4018 89.583 51.3943V59.4503H86.9012V43.6721H89.583V45.3846H89.6476C90.2938 44.5122 90.8754 43.9414 91.3708 43.6614C91.877 43.3814 92.4586 43.2413 93.1371 43.2413C93.5464 43.2413 93.9449 43.306 94.3649 43.446C94.7742 43.5752 95.1727 43.7583 95.5604 43.9845L94.2788 46.4293Z"
    fill="black" />
  <path d="M112.831 34.1518V55.1643H119.81V59.4615H107.888V34.1518H112.821H112.831Z" fill="#FF2D1F" />
  <path
    d="M132.192 42.9722H136.823V59.4504H132.192V57.9426H132.127C131.632 58.5888 130.975 59.095 130.156 59.4504C129.338 59.8059 128.508 59.989 127.657 59.989C125.482 59.989 123.683 59.1381 122.24 57.4257C120.797 55.7132 120.075 53.613 120.075 51.1359C120.075 49.5958 120.388 48.1634 121.012 46.8387C121.637 45.5139 122.531 44.4585 123.683 43.6507C124.836 42.8429 126.139 42.4445 127.593 42.4445C128.444 42.4445 129.273 42.6275 130.092 42.983C130.91 43.3384 131.61 43.8553 132.192 44.5231V42.983V42.9722ZM128.702 46.6017C127.647 46.6017 126.742 47.0541 125.977 47.9587C125.213 48.8634 124.836 49.9405 124.836 51.2006C124.836 52.4607 125.213 53.5377 125.977 54.4639C126.742 55.3794 127.657 55.8425 128.724 55.8425C129.79 55.8425 130.749 55.3901 131.513 54.4854C132.278 53.5807 132.655 52.4822 132.655 51.2113C132.655 49.9405 132.267 48.8527 131.492 47.9587C130.716 47.0648 129.79 46.6125 128.691 46.6125L128.702 46.6017Z"
    fill="#FF2D1F" />
  <path
    d="M150.446 47.2056C149.865 46.8071 149.219 46.6025 148.497 46.6025C147.291 46.6025 146.386 47.0118 145.794 47.8303C145.201 48.6488 144.911 49.9951 144.911 51.8691V59.4512H140.215V42.973H144.911V44.6854H144.975C145.449 43.9638 146.031 43.4145 146.72 43.0268C147.409 42.6391 148.195 42.4344 149.068 42.4344C149.714 42.456 150.36 42.596 151.017 42.8437L150.446 47.2056Z"
    fill="#FF2D1F" />
  <path
    d="M163.467 42.9722H168.099V59.4504H163.467V57.9426H163.403C162.907 58.5888 162.25 59.095 161.432 59.4504C160.613 59.8059 159.784 59.989 158.933 59.989C156.758 59.989 154.959 59.1381 153.516 57.4257C152.073 55.7132 151.351 53.613 151.351 51.1359C151.351 49.5958 151.663 48.1634 152.288 46.8387C152.913 45.5139 153.807 44.4585 154.959 43.6507C156.111 42.8429 157.415 42.4445 158.869 42.4445C159.719 42.4445 160.549 42.6275 161.367 42.983C162.186 43.3384 162.886 43.8553 163.467 44.5231V42.983V42.9722ZM159.978 46.6017C158.922 46.6017 158.018 47.0541 157.253 47.9587C156.488 48.8634 156.111 49.9405 156.111 51.2006C156.111 52.4607 156.488 53.5377 157.253 54.4639C158.018 55.3794 158.933 55.8425 159.999 55.8425C161.066 55.8425 162.024 55.3901 162.789 54.4854C163.554 53.5807 163.93 52.4822 163.93 51.2113C163.93 49.9405 163.543 48.8527 162.767 47.9587C161.992 47.0648 161.066 46.6125 159.967 46.6125L159.978 46.6017Z"
    fill="#FF2D1F" />
  <path
    d="M174.375 42.9727L178.242 52.278L181.634 42.9727H186.772L179.189 59.7956H176.777L169.227 42.9727H174.397H174.375Z"
    fill="#FF2D1F" />
  <path
    d="M191.664 51.9652C191.664 53.333 191.955 54.41 192.536 55.207C193.118 56.004 193.915 56.4025 194.916 56.4025C195.703 56.4025 196.338 56.1871 196.844 55.7671C197.35 55.3363 197.76 54.7978 198.072 54.1516L202.402 54.8624C201.82 56.5425 200.862 57.8134 199.537 58.6858C198.201 59.5582 196.661 59.9997 194.916 59.9997C192.472 59.9997 190.501 59.2027 188.971 57.6195C187.453 56.0256 186.688 53.9469 186.688 51.3729C186.688 48.6696 187.399 46.5048 188.831 44.8785C190.264 43.2522 192.213 42.4445 194.669 42.4445C197.124 42.4445 199.052 43.2414 200.431 44.8246C201.809 46.4078 202.499 48.6588 202.499 51.5667V51.9652H191.653H191.664ZM198.072 49.0465C197.911 48.0234 197.544 47.2048 196.963 46.6125C196.381 46.0201 195.703 45.7186 194.916 45.7186C194.173 45.7186 193.516 45.9878 192.935 46.5263C192.353 47.0648 191.976 47.9049 191.793 49.0465H198.072Z"
    fill="#FF2D1F" />
  <path d="M209.382 30.9969V59.4623H204.686V30.9969H209.382Z" fill="#FF2D1F" />
</svg>