<svg id="qr_code_scanner_black_24dp" xmlns="http://www.w3.org/2000/svg" width="28" height="28" viewBox="0 0 28 28">
  <rect id="Rectangle_11965" data-name="Rectangle 11965" width="28" height="28" fill="none"/>
  <path id="Path_23299" data-name="Path 23299" d="M10.75,7.25v3.5H7.25V7.25h3.5M12.5,5.5h-7v7h7v-7ZM10.75,16.583v3.5H7.25v-3.5h3.5m1.75-1.75h-7v7h7v-7ZM20.083,7.25v3.5h-3.5V7.25h3.5m1.75-1.75h-7v7h7v-7Zm-7,9.333h1.75v1.75h-1.75Zm1.75,1.75h1.75v1.75h-1.75Zm1.75-1.75h1.75v1.75h-1.75Zm-3.5,3.5h1.75v1.75h-1.75Zm1.75,1.75h1.75v1.75h-1.75Zm1.75-1.75h1.75v1.75h-1.75Zm1.75-1.75h1.75v1.75h-1.75Zm0,3.5h1.75v1.75h-1.75Zm5.25-12.25H23v-3.5H19.5V2h5.833Zm0,17.5V19.5H23V23H19.5v2.333ZM2,25.333H7.833V23h-3.5V19.5H2ZM2,2V7.833H4.333v-3.5h3.5V2Z" transform="translate(0.333 0.333)" fill="#1e1a1c"/>
</svg>
